<svg width="208" height="29" viewBox="0 0 208 29" fill="none" xmlns="http://www.w3.org/2000/svg">
<path d="M17.4273 2.08C19.4673 3.8 20.6673 6.52 20.6673 9.52C20.6673 12.4 19.4673 15.36 17.7473 16.88C15.9073 18.44 14.1073 19.32 9.74734 19.32H7.46734C7.30734 19.32 7.14734 19.44 7.14734 19.64V27.68C7.14734 27.88 6.98734 28 6.78734 28H0.347344C0.147344 28 0.0273438 27.88 0.0273438 27.68V0.359998C0.0273438 0.159998 0.147344 -1.90735e-06 0.347344 -1.90735e-06H8.98734C13.9873 -1.90735e-06 15.9073 0.8 17.4273 2.08ZM12.2273 12.44C13.5473 11.88 13.8273 10.6 13.8273 9.6C13.8273 8.24 13.2673 7.36 12.1473 6.88C11.2273 6.44 10.0673 6.44 9.30734 6.44H7.46734C7.30734 6.44 7.14734 6.6 7.14734 6.8V12.52C7.14734 12.72 7.30734 12.84 7.46734 12.84H9.58734C10.2273 12.84 11.3073 12.84 12.2273 12.44ZM28.188 0.119999C28.348 0.119999 28.508 0.279999 28.508 0.479999V27.68C28.508 27.88 28.348 28 28.188 28H21.908C21.708 28 21.588 27.88 21.588 27.68V0.479999C21.588 0.279999 21.708 0.119999 21.908 0.119999H28.188ZM52.977 6.8C53.137 6.8 53.297 6.96 53.297 7.16V27.68C53.297 27.84 53.137 28 52.977 28H47.017C46.857 28 46.697 27.84 46.697 27.68V27.36C46.697 27.24 46.537 27.16 46.457 27.2C44.737 28.16 42.817 28.68 40.857 28.68C34.657 28.68 29.617 23.68 29.617 17.56C29.617 11.44 34.657 6.48 40.857 6.48C42.817 6.48 44.737 6.96 46.457 7.92C46.537 8 46.697 7.92 46.697 7.8V7.16C46.697 6.96 46.857 6.8 47.017 6.8H52.977ZM41.857 22.68C44.737 22.68 46.697 20.4 46.697 17.56C46.697 14.76 44.737 12.48 41.857 12.48C39.017 12.48 36.697 14.76 36.697 17.56C36.697 20.4 39.017 22.68 41.857 22.68ZM71.9817 8.68C74.1417 10.88 74.5017 12.64 74.5017 15.76V27.68C74.5017 27.88 74.3417 28 74.1817 28H67.8617C67.6617 28 67.5017 27.88 67.5017 27.68V16.08C67.5017 15.28 67.4617 14.4 67.1417 13.68C66.9817 13.36 66.7817 13.12 66.5417 12.92C66.1417 12.6 65.6217 12.44 64.9817 12.44C63.7417 12.44 62.8217 12.88 62.5017 13.56C62.1817 14.28 62.1817 15.28 62.1817 16.08V27.68C62.1817 27.88 62.0217 28 61.8217 28H55.5017C55.3017 28 55.1817 27.88 55.1817 27.68V7.16C55.1817 6.96 55.3017 6.8 55.5017 6.8H61.4217C61.6217 6.8 61.7817 6.96 61.7817 7.16V7.72C61.7817 7.88 61.9017 7.96 62.0217 7.88C66.8217 4.56 71.4617 8.24 71.5017 8.28C71.6617 8.4 71.8217 8.56 71.9817 8.68ZM97.4383 14.44C97.7583 15.48 97.8783 16.52 97.8783 17.6C97.8783 18.2 97.8383 18.92 97.7183 19.56C97.6783 19.72 97.5583 19.84 97.3583 19.84H82.5183C82.2783 19.84 82.1183 20.12 82.2383 20.36C83.1583 21.88 84.7983 22.88 86.5983 22.88C88.1183 22.88 89.5583 22.2 90.5583 20.88C90.6383 20.8 90.7583 20.72 90.9183 20.76L96.5983 21.76C96.7983 21.8 96.9183 22.04 96.8383 22.24C96.7183 22.52 96.5583 22.84 96.4383 23L96.3583 23.16C96.2783 23.32 96.1983 23.48 96.0783 23.64C95.9583 23.84 95.8383 24 95.7183 24.16L95.6383 24.28C95.5983 24.32 95.5583 24.36 95.5183 24.4L95.4383 24.48C95.3583 24.6 95.2783 24.68 95.1983 24.76L95.1583 24.84C94.9983 25 94.8783 25.12 94.7583 25.28L94.6783 25.36C94.5983 25.44 94.5183 25.52 94.3983 25.6V25.64C94.2783 25.72 94.1983 25.84 94.0783 25.92L93.9583 26L93.8383 25.88L93.9583 26.04C93.7983 26.16 93.6383 26.28 93.4783 26.4L93.3583 26.48C93.1983 26.6 92.9983 26.72 92.8383 26.84L92.7583 26.88C92.5583 27.04 92.3583 27.16 92.1183 27.28L92.0783 27.32C92.0383 27.32 91.9583 27.36 91.9183 27.4H91.8783C91.7983 27.44 91.7183 27.48 91.5983 27.56H91.5583C91.3583 27.68 91.1583 27.76 90.9983 27.84H90.9583C90.7983 27.88 90.7183 27.92 90.5983 27.96L90.4383 28.04C90.3183 28.08 90.1583 28.12 90.0383 28.16H89.9983C89.8383 28.24 89.6783 28.28 89.5183 28.32L89.3983 28.36C89.0783 28.44 88.7583 28.48 88.3983 28.56H88.2783C87.9583 28.6 87.5983 28.64 87.2783 28.68H87.1583C86.9583 28.68 86.7983 28.68 86.6383 28.68C86.4783 28.68 86.3183 28.68 86.1183 28.68C86.0783 28.68 86.0383 28.68 85.9983 28.68H85.9583C85.8383 28.64 85.7183 28.64 85.5983 28.64H85.5583C85.5183 28.64 85.4783 28.64 85.4383 28.6C85.2383 28.6 85.0783 28.6 84.9183 28.56H84.8383C84.6783 28.52 84.5583 28.48 84.4383 28.48L84.2783 28.44C84.1583 28.4 84.0383 28.4 83.9183 28.36H83.8783C83.8383 28.32 83.7983 28.32 83.7583 28.32C83.5983 28.28 83.4383 28.24 83.2783 28.2C83.1183 28.12 82.9583 28.08 82.7983 28.04C82.7983 28 82.7583 28 82.7183 28L82.6783 27.96C82.5583 27.92 82.4383 27.88 82.3583 27.84H82.3183C82.2783 27.8 82.2383 27.8 82.1983 27.8C82.0383 27.72 81.9183 27.64 81.7583 27.6C81.5983 27.52 81.4783 27.44 81.3183 27.36C81.2783 27.36 81.2383 27.32 81.1983 27.32V27.28C81.0783 27.24 80.9983 27.2 80.8783 27.12L80.7583 27.04C80.5983 26.96 80.4783 26.88 80.3583 26.8C78.9983 25.88 77.8383 24.72 76.9983 23.32C76.9183 23.24 76.8783 23.12 76.7983 23L76.7583 22.92C76.7183 22.84 76.6383 22.72 76.5983 22.6L76.5583 22.52C76.5583 22.48 76.5183 22.48 76.5183 22.44C76.2783 22 76.1183 21.52 75.9583 21.04C75.8383 20.8 75.7983 20.56 75.7183 20.36C75.6783 20.2 75.6383 20 75.5983 19.8C75.4783 19.28 75.4383 18.72 75.3983 18.16C75.3983 17.96 75.3983 17.76 75.3983 17.6C75.3983 17.4 75.3983 17.2 75.3983 17C75.4383 16.04 75.6383 15.04 75.9583 14.12C76.0383 13.8 76.1583 13.52 76.2783 13.28C76.3183 13.12 76.3983 12.96 76.4783 12.8C76.4783 12.8 76.5183 12.76 76.5183 12.72L76.5583 12.64C76.5583 12.6 76.5983 12.56 76.5983 12.52C76.6383 12.48 76.6383 12.44 76.6783 12.44L76.7583 12.24C76.8383 12.12 76.9183 11.96 76.9983 11.84C77.8383 10.48 78.9983 9.28 80.3583 8.36C80.4783 8.28 80.5983 8.2 80.7583 8.12L80.8783 8.04C80.9983 8 81.0783 7.92 81.1983 7.88V7.84C81.2383 7.84 81.2783 7.8 81.3183 7.8C81.4783 7.72 81.5983 7.64 81.7583 7.56C81.9183 7.52 82.0383 7.44 82.1983 7.36C82.2383 7.36 82.2783 7.36 82.3183 7.32H82.3583C82.4383 7.28 82.5583 7.24 82.6783 7.2L82.7183 7.16C82.7583 7.16 82.7983 7.16 82.7983 7.12C82.9583 7.08 83.1183 7.04 83.2783 6.96C83.4383 6.92 83.5983 6.88 83.7583 6.84C83.7983 6.84 83.8383 6.84 83.8783 6.8H83.9183C84.0383 6.76 84.1583 6.76 84.2783 6.72H84.3583C84.5183 6.68 84.7583 6.64 84.8783 6.6H84.9183C85.0783 6.6 85.2383 6.56 85.4383 6.56C85.4783 6.56 85.5183 6.52 85.5583 6.52H85.5983C85.7183 6.52 85.8383 6.52 85.9583 6.52H85.9983C86.0383 6.48 86.0783 6.48 86.1183 6.48C86.3183 6.48 86.4783 6.48 86.6383 6.48C86.7983 6.48 86.9583 6.48 87.1583 6.48H87.2783C87.5983 6.52 87.9583 6.56 88.2783 6.6L88.4383 6.64C88.7583 6.68 89.0783 6.72 89.3983 6.8L89.5183 6.84C89.6783 6.88 89.8383 6.96 89.9983 7H90.0383C90.1583 7.04 90.3183 7.08 90.4383 7.12C90.4783 7.16 90.5183 7.16 90.5583 7.2C90.7183 7.24 90.7983 7.28 90.9183 7.32H90.9983C91.1583 7.4 91.3583 7.52 91.5583 7.6H91.5983C91.7183 7.68 91.7983 7.72 91.8783 7.76H91.9183L91.8383 7.92L91.9183 7.76C91.9583 7.8 92.0383 7.84 92.0783 7.88C92.2783 7.96 92.5583 8.16 92.7583 8.28H92.7983C92.9983 8.4 93.1583 8.52 93.3583 8.68C93.3983 8.72 93.4383 8.76 93.4783 8.76C93.6383 8.88 93.7983 9 93.9583 9.16L94.0383 9.2C94.1583 9.32 94.2783 9.44 94.3983 9.52V9.56C94.5183 9.64 94.5983 9.72 94.6783 9.8L94.7583 9.88C94.8783 10.04 94.9983 10.16 95.1183 10.32L95.0383 10.44L95.1583 10.32L95.1983 10.4C95.2783 10.48 95.3583 10.56 95.4383 10.68L95.5183 10.76C95.5983 10.84 95.6783 10.96 95.7583 11.08C95.8383 11.2 95.9183 11.28 95.9583 11.36L96.0783 11.56C96.1183 11.64 96.1983 11.72 96.2383 11.8L96.4383 12.16C96.8783 12.88 97.1983 13.64 97.4383 14.44ZM90.9183 15.16C91.1183 15.16 91.2783 14.96 91.2783 14.76C90.9983 13.2 89.1983 12 86.8783 12C84.7983 12 82.7983 13.2 82.5183 14.76C82.4783 14.96 82.6383 15.16 82.8383 15.16H90.9183ZM110.57 22.52C110.77 22.52 110.93 22.68 110.89 22.88L110.13 27.92C110.13 28.08 109.97 28.2 109.81 28.2C109.09 28.24 107.17 28.36 106.57 28.36C106.53 28.36 106.49 28.36 106.45 28.36C102.85 28.16 100.93 26.32 100.93 23V12.84C100.93 12.64 100.81 12.48 100.61 12.48H98.4098C98.2098 12.48 98.0898 12.32 98.0898 12.16V7.12C98.0898 6.96 98.2098 6.8 98.4098 6.8H100.61C100.81 6.8 100.93 6.64 100.93 6.44V0.639999C100.93 0.44 101.09 0.319999 101.29 0.319999H107.21C107.41 0.319999 107.57 0.44 107.57 0.639999V6.44C107.57 6.64 107.69 6.8 107.89 6.8H110.09C110.29 6.8 110.41 6.96 110.41 7.12V12.16C110.41 12.32 110.29 12.48 110.09 12.48H107.89C107.69 12.48 107.57 12.64 107.57 12.84C107.53 14.6 107.53 19.8 107.53 19.84V20C107.53 20.64 107.49 21.52 108.01 22.04C108.33 22.36 108.77 22.52 109.41 22.52H110.57Z" fill="#F5F5F5"/>
<path d="M128.976 -1.90735e-06C129.176 -1.90735e-06 129.336 0.159998 129.336 0.319999V6.12C129.336 6.28 129.176 6.44 128.976 6.44H124.016C123.816 6.44 123.656 6.6 123.656 6.8V27.68C123.656 27.88 123.496 28.04 123.336 28.04H116.856C116.696 28.04 116.536 27.88 116.536 27.68V6.8C116.536 6.6 116.376 6.44 116.216 6.44H111.176C110.976 6.44 110.856 6.28 110.856 6.12V0.319999C110.856 0.159998 110.976 -1.90735e-06 111.176 -1.90735e-06H128.976ZM146.786 8.68C148.946 10.88 149.306 12.64 149.306 15.76V27.68C149.306 27.88 149.146 28 148.986 28H142.666C142.466 28 142.306 27.88 142.306 27.68V16.08C142.306 15.28 142.266 14.4 141.946 13.68C141.786 13.36 141.586 13.12 141.346 12.92C140.946 12.6 140.426 12.44 139.786 12.44C138.546 12.44 137.626 12.88 137.306 13.56C136.986 14.28 136.986 15.28 136.986 16.08V27.68C136.986 27.88 136.826 28 136.626 28H130.306C130.106 28 129.986 27.88 129.986 27.68V0.479999C129.986 0.279999 130.106 0.119999 130.306 0.119999H136.226C136.426 0.119999 136.586 0.279999 136.586 0.479999V7.72C136.586 7.88 136.706 7.96 136.826 7.88C141.626 4.56 146.266 8.24 146.306 8.28C146.466 8.4 146.626 8.56 146.786 8.68ZM172.243 14.44C172.563 15.48 172.683 16.52 172.683 17.6C172.683 18.2 172.643 18.92 172.523 19.56C172.483 19.72 172.363 19.84 172.163 19.84H157.323C157.083 19.84 156.923 20.12 157.043 20.36C157.963 21.88 159.603 22.88 161.403 22.88C162.923 22.88 164.363 22.2 165.363 20.88C165.443 20.8 165.563 20.72 165.723 20.76L171.403 21.76C171.603 21.8 171.723 22.04 171.643 22.24C171.523 22.52 171.363 22.84 171.243 23L171.163 23.16C171.083 23.32 171.003 23.48 170.883 23.64C170.763 23.84 170.643 24 170.523 24.16L170.443 24.28C170.403 24.32 170.363 24.36 170.323 24.4L170.243 24.48C170.163 24.6 170.083 24.68 170.003 24.76L169.963 24.84C169.803 25 169.683 25.12 169.563 25.28L169.483 25.36C169.403 25.44 169.323 25.52 169.203 25.6V25.64C169.083 25.72 169.003 25.84 168.883 25.92L168.763 26L168.643 25.88L168.763 26.04C168.603 26.16 168.443 26.28 168.283 26.4L168.163 26.48C168.003 26.6 167.803 26.72 167.643 26.84L167.563 26.88C167.363 27.04 167.163 27.16 166.923 27.28L166.883 27.32C166.843 27.32 166.763 27.36 166.723 27.4H166.683C166.603 27.44 166.523 27.48 166.403 27.56H166.363C166.163 27.68 165.963 27.76 165.803 27.84H165.763C165.603 27.88 165.523 27.92 165.403 27.96L165.243 28.04C165.123 28.08 164.963 28.12 164.843 28.16H164.803C164.643 28.24 164.483 28.28 164.323 28.32L164.203 28.36C163.883 28.44 163.563 28.48 163.203 28.56H163.083C162.763 28.6 162.403 28.64 162.083 28.68H161.963C161.763 28.68 161.603 28.68 161.443 28.68C161.283 28.68 161.123 28.68 160.923 28.68C160.883 28.68 160.843 28.68 160.803 28.68H160.763C160.643 28.64 160.523 28.64 160.403 28.64H160.363C160.323 28.64 160.283 28.64 160.243 28.6C160.043 28.6 159.883 28.6 159.723 28.56H159.643C159.483 28.52 159.363 28.48 159.243 28.48L159.083 28.44C158.963 28.4 158.843 28.4 158.723 28.36H158.683C158.643 28.32 158.603 28.32 158.563 28.32C158.403 28.28 158.243 28.24 158.083 28.2C157.923 28.12 157.763 28.08 157.603 28.04C157.603 28 157.563 28 157.523 28L157.483 27.96C157.363 27.92 157.243 27.88 157.163 27.84H157.123C157.083 27.8 157.043 27.8 157.003 27.8C156.843 27.72 156.723 27.64 156.563 27.6C156.403 27.52 156.283 27.44 156.123 27.36C156.083 27.36 156.043 27.32 156.003 27.32V27.28C155.883 27.24 155.803 27.2 155.683 27.12L155.563 27.04C155.403 26.96 155.283 26.88 155.163 26.8C153.803 25.88 152.643 24.72 151.803 23.32C151.723 23.24 151.683 23.12 151.603 23L151.563 22.92C151.523 22.84 151.443 22.72 151.403 22.6L151.363 22.52C151.363 22.48 151.323 22.48 151.323 22.44C151.083 22 150.923 21.52 150.763 21.04C150.643 20.8 150.603 20.56 150.523 20.36C150.483 20.2 150.443 20 150.403 19.8C150.283 19.28 150.243 18.72 150.203 18.16C150.203 17.96 150.203 17.76 150.203 17.6C150.203 17.4 150.203 17.2 150.203 17C150.243 16.04 150.443 15.04 150.763 14.12C150.843 13.8 150.963 13.52 151.083 13.28C151.123 13.12 151.203 12.96 151.283 12.8C151.283 12.8 151.323 12.76 151.323 12.72L151.363 12.64C151.363 12.6 151.403 12.56 151.403 12.52C151.443 12.48 151.443 12.44 151.483 12.44L151.563 12.24C151.643 12.12 151.723 11.96 151.803 11.84C152.643 10.48 153.803 9.28 155.163 8.36C155.283 8.28 155.403 8.2 155.563 8.12L155.683 8.04C155.803 8 155.883 7.92 156.003 7.88V7.84C156.043 7.84 156.083 7.8 156.123 7.8C156.283 7.72 156.403 7.64 156.563 7.56C156.723 7.52 156.843 7.44 157.003 7.36C157.043 7.36 157.083 7.36 157.123 7.32H157.163C157.243 7.28 157.363 7.24 157.483 7.2L157.523 7.16C157.563 7.16 157.603 7.16 157.603 7.12C157.763 7.08 157.923 7.04 158.083 6.96C158.243 6.92 158.403 6.88 158.563 6.84C158.603 6.84 158.643 6.84 158.683 6.8H158.723C158.843 6.76 158.963 6.76 159.083 6.72H159.163C159.323 6.68 159.563 6.64 159.683 6.6H159.723C159.883 6.6 160.043 6.56 160.243 6.56C160.283 6.56 160.323 6.52 160.363 6.52H160.403C160.523 6.52 160.643 6.52 160.763 6.52H160.803C160.843 6.48 160.883 6.48 160.923 6.48C161.123 6.48 161.283 6.48 161.443 6.48C161.603 6.48 161.763 6.48 161.963 6.48H162.083C162.403 6.52 162.763 6.56 163.083 6.6L163.243 6.64C163.563 6.68 163.883 6.72 164.203 6.8L164.323 6.84C164.483 6.88 164.643 6.96 164.803 7H164.843C164.963 7.04 165.123 7.08 165.243 7.12C165.283 7.16 165.323 7.16 165.363 7.2C165.523 7.24 165.603 7.28 165.723 7.32H165.803C165.963 7.4 166.163 7.52 166.363 7.6H166.403C166.523 7.68 166.603 7.72 166.683 7.76H166.723L166.643 7.92L166.723 7.76C166.763 7.8 166.843 7.84 166.883 7.88C167.083 7.96 167.363 8.16 167.563 8.28H167.603C167.803 8.4 167.963 8.52 168.163 8.68C168.203 8.72 168.243 8.76 168.283 8.76C168.443 8.88 168.603 9 168.763 9.16L168.843 9.2C168.963 9.32 169.083 9.44 169.203 9.52V9.56C169.323 9.64 169.403 9.72 169.483 9.8L169.563 9.88C169.683 10.04 169.803 10.16 169.923 10.32L169.843 10.44L169.963 10.32L170.003 10.4C170.083 10.48 170.163 10.56 170.243 10.68L170.323 10.76C170.403 10.84 170.483 10.96 170.563 11.08C170.643 11.2 170.723 11.28 170.763 11.36L170.883 11.56C170.923 11.64 171.003 11.72 171.043 11.8L171.243 12.16C171.683 12.88 172.003 13.64 172.243 14.44ZM165.723 15.16C165.923 15.16 166.083 14.96 166.083 14.76C165.803 13.2 164.003 12 161.683 12C159.603 12 157.603 13.2 157.323 14.76C157.283 14.96 157.443 15.16 157.643 15.16H165.723ZM185.135 6.8C185.295 6.8 185.455 6.96 185.455 7.16L185.255 12.12C185.255 12.32 185.095 12.48 184.895 12.44C184.295 12.4 183.135 12.32 182.455 12.48C181.695 12.68 181.255 13.28 181.135 13.56C180.815 14.28 180.815 14.92 180.815 15.76V27.68C180.815 27.88 180.655 28 180.455 28H174.135C173.935 28 173.815 27.88 173.815 27.68V7.16C173.815 6.96 173.935 6.8 174.135 6.8H180.055C180.255 6.8 180.415 6.96 180.415 7.16V7.76C180.415 7.88 180.535 7.96 180.655 7.88C182.055 7 183.735 6.84 185.135 6.8ZM207.321 14.44C207.641 15.48 207.761 16.52 207.761 17.6C207.761 18.2 207.721 18.92 207.601 19.56C207.561 19.72 207.441 19.84 207.241 19.84H192.401C192.161 19.84 192.001 20.12 192.121 20.36C193.041 21.88 194.681 22.88 196.481 22.88C198.001 22.88 199.441 22.2 200.441 20.88C200.521 20.8 200.641 20.72 200.801 20.76L206.481 21.76C206.681 21.8 206.801 22.04 206.721 22.24C206.601 22.52 206.441 22.84 206.321 23L206.241 23.16C206.161 23.32 206.081 23.48 205.961 23.64C205.841 23.84 205.721 24 205.601 24.16L205.521 24.28C205.481 24.32 205.441 24.36 205.401 24.4L205.321 24.48C205.241 24.6 205.161 24.68 205.081 24.76L205.041 24.84C204.881 25 204.761 25.12 204.641 25.28L204.561 25.36C204.481 25.44 204.401 25.52 204.281 25.6V25.64C204.161 25.72 204.081 25.84 203.961 25.92L203.841 26L203.721 25.88L203.841 26.04C203.681 26.16 203.521 26.28 203.361 26.4L203.241 26.48C203.081 26.6 202.881 26.72 202.721 26.84L202.641 26.88C202.441 27.04 202.241 27.16 202.001 27.28L201.961 27.32C201.921 27.32 201.841 27.36 201.801 27.4H201.761C201.681 27.44 201.601 27.48 201.481 27.56H201.441C201.241 27.68 201.041 27.76 200.881 27.84H200.841C200.681 27.88 200.601 27.92 200.481 27.96L200.321 28.04C200.201 28.08 200.041 28.12 199.921 28.16H199.881C199.721 28.24 199.561 28.28 199.401 28.32L199.281 28.36C198.961 28.44 198.641 28.48 198.281 28.56H198.161C197.841 28.6 197.481 28.64 197.161 28.68H197.041C196.841 28.68 196.681 28.68 196.521 28.68C196.361 28.68 196.201 28.68 196.001 28.68C195.961 28.68 195.921 28.68 195.881 28.68H195.841C195.721 28.64 195.601 28.64 195.481 28.64H195.441C195.401 28.64 195.361 28.64 195.321 28.6C195.121 28.6 194.961 28.6 194.801 28.56H194.721C194.561 28.52 194.441 28.48 194.321 28.48L194.161 28.44C194.041 28.4 193.921 28.4 193.801 28.36H193.761C193.721 28.32 193.681 28.32 193.641 28.32C193.481 28.28 193.321 28.24 193.161 28.2C193.001 28.12 192.841 28.08 192.681 28.04C192.681 28 192.641 28 192.601 28L192.561 27.96C192.441 27.92 192.321 27.88 192.241 27.84H192.201C192.161 27.8 192.121 27.8 192.081 27.8C191.921 27.72 191.801 27.64 191.641 27.6C191.481 27.52 191.361 27.44 191.201 27.36C191.161 27.36 191.121 27.32 191.081 27.32V27.28C190.961 27.24 190.881 27.2 190.761 27.12L190.641 27.04C190.481 26.96 190.361 26.88 190.241 26.8C188.881 25.88 187.721 24.72 186.881 23.32C186.801 23.24 186.761 23.12 186.681 23L186.641 22.92C186.601 22.84 186.521 22.72 186.481 22.6L186.441 22.52C186.441 22.48 186.401 22.48 186.401 22.44C186.161 22 186.001 21.52 185.841 21.04C185.721 20.8 185.681 20.56 185.601 20.36C185.561 20.2 185.521 20 185.481 19.8C185.361 19.28 185.321 18.72 185.281 18.16C185.281 17.96 185.281 17.76 185.281 17.6C185.281 17.4 185.281 17.2 185.281 17C185.321 16.04 185.521 15.04 185.841 14.12C185.921 13.8 186.041 13.52 186.161 13.28C186.201 13.12 186.281 12.96 186.361 12.8C186.361 12.8 186.401 12.76 186.401 12.72L186.441 12.64C186.441 12.6 186.481 12.56 186.481 12.52C186.521 12.48 186.521 12.44 186.561 12.44L186.641 12.24C186.721 12.12 186.801 11.96 186.881 11.84C187.721 10.48 188.881 9.28 190.241 8.36C190.361 8.28 190.481 8.2 190.641 8.12L190.761 8.04C190.881 8 190.961 7.92 191.081 7.88V7.84C191.121 7.84 191.161 7.8 191.201 7.8C191.361 7.72 191.481 7.64 191.641 7.56C191.801 7.52 191.921 7.44 192.081 7.36C192.121 7.36 192.161 7.36 192.201 7.32H192.241C192.321 7.28 192.441 7.24 192.561 7.2L192.601 7.16C192.641 7.16 192.681 7.16 192.681 7.12C192.841 7.08 193.001 7.04 193.161 6.96C193.321 6.92 193.481 6.88 193.641 6.84C193.681 6.84 193.721 6.84 193.761 6.8H193.801C193.921 6.76 194.041 6.76 194.161 6.72H194.241C194.401 6.68 194.641 6.64 194.761 6.6H194.801C194.961 6.6 195.121 6.56 195.321 6.56C195.361 6.56 195.401 6.52 195.441 6.52H195.481C195.601 6.52 195.721 6.52 195.841 6.52H195.881C195.921 6.48 195.961 6.48 196.001 6.48C196.201 6.48 196.361 6.48 196.521 6.48C196.681 6.48 196.841 6.48 197.041 6.48H197.161C197.481 6.52 197.841 6.56 198.161 6.6L198.321 6.64C198.641 6.68 198.961 6.72 199.281 6.8L199.401 6.84C199.561 6.88 199.721 6.96 199.881 7H199.921C200.041 7.04 200.201 7.08 200.321 7.12C200.361 7.16 200.401 7.16 200.441 7.2C200.601 7.24 200.681 7.28 200.801 7.32H200.881C201.041 7.4 201.241 7.52 201.441 7.6H201.481C201.601 7.68 201.681 7.72 201.761 7.76H201.801L201.721 7.92L201.801 7.76C201.841 7.8 201.921 7.84 201.961 7.88C202.161 7.96 202.441 8.16 202.641 8.28H202.681C202.881 8.4 203.041 8.52 203.241 8.68C203.281 8.72 203.321 8.76 203.361 8.76C203.521 8.88 203.681 9 203.841 9.16L203.921 9.2C204.041 9.32 204.161 9.44 204.281 9.52V9.56C204.401 9.64 204.481 9.72 204.561 9.8L204.641 9.88C204.761 10.04 204.881 10.16 205.001 10.32L204.921 10.44L205.041 10.32L205.081 10.4C205.161 10.48 205.241 10.56 205.321 10.68L205.401 10.76C205.481 10.84 205.561 10.96 205.641 11.08C205.721 11.2 205.801 11.28 205.841 11.36L205.961 11.56C206.001 11.64 206.081 11.72 206.121 11.8L206.321 12.16C206.761 12.88 207.081 13.64 207.321 14.44ZM200.801 15.16C201.001 15.16 201.161 14.96 201.161 14.76C200.881 13.2 199.081 12 196.761 12C194.681 12 192.681 13.2 192.401 14.76C192.361 14.96 192.521 15.16 192.721 15.16H200.801Z" fill="#009688"/>
</svg>
