<svg width="32" height="32" viewBox="0 0 32 32" fill="none" xmlns="http://www.w3.org/2000/svg">
<path d="M7.80008 22.8C8.93341 21.9333 10.2001 21.25 11.6001 20.75C13.0001 20.25 14.4667 20 16.0001 20C17.5334 20 19.0001 20.25 20.4001 20.75C21.8001 21.25 23.0667 21.9333 24.2001 22.8C24.9779 21.8888 25.5834 20.8555 26.0168 19.7C26.4501 18.5444 26.6667 17.3111 26.6667 16C26.6667 13.0444 25.6279 10.5277 23.5501 8.44996C21.4723 6.37218 18.9556 5.33329 16.0001 5.33329C13.0445 5.33329 10.5279 6.37218 8.45008 8.44996C6.3723 10.5277 5.33341 13.0444 5.33341 16C5.33341 17.3111 5.55008 18.5444 5.98341 19.7C6.41675 20.8555 7.0223 21.8888 7.80008 22.8ZM16.0001 17.3333C14.689 17.3333 13.5834 16.8833 12.6834 15.9833C11.7834 15.0833 11.3334 13.9777 11.3334 12.6666C11.3334 11.3555 11.7834 10.25 12.6834 9.34996C13.5834 8.44996 14.689 7.99996 16.0001 7.99996C17.3112 7.99996 18.4167 8.44996 19.3167 9.34996C20.2167 10.25 20.6667 11.3555 20.6667 12.6666C20.6667 13.9777 20.2167 15.0833 19.3167 15.9833C18.4167 16.8833 17.3112 17.3333 16.0001 17.3333ZM16.0001 29.3333C14.1556 29.3333 12.4223 28.9833 10.8001 28.2833C9.17786 27.5833 7.76675 26.6333 6.56675 25.4333C5.36675 24.2333 4.41675 22.8222 3.71675 21.2C3.01675 19.5777 2.66675 17.8444 2.66675 16C2.66675 14.1555 3.01675 12.4222 3.71675 10.8C4.41675 9.17774 5.36675 7.76663 6.56675 6.56663C7.76675 5.36663 9.17786 4.41663 10.8001 3.71663C12.4223 3.01663 14.1556 2.66663 16.0001 2.66663C17.8445 2.66663 19.5779 3.01663 21.2001 3.71663C22.8223 4.41663 24.2334 5.36663 25.4334 6.56663C26.6334 7.76663 27.5834 9.17774 28.2834 10.8C28.9834 12.4222 29.3334 14.1555 29.3334 16C29.3334 17.8444 28.9834 19.5777 28.2834 21.2C27.5834 22.8222 26.6334 24.2333 25.4334 25.4333C24.2334 26.6333 22.8223 27.5833 21.2001 28.2833C19.5779 28.9833 17.8445 29.3333 16.0001 29.3333Z" fill="#1D1B20"/>
</svg>
