<svg width="59" height="57" viewBox="0 0 59 57" fill="none" xmlns="http://www.w3.org/2000/svg">
<path d="M41.7916 49.875V45.125C41.7916 42.6054 40.7556 40.1891 38.9115 38.4075C37.0674 36.6259 34.5662 35.625 31.9583 35.625H12.2916C9.68362 35.625 7.18248 36.6259 5.33837 38.4075C3.49426 40.1891 2.45825 42.6054 2.45825 45.125V49.875M56.5416 49.875V45.125C56.54 43.0201 55.8148 40.9753 54.4799 39.3117C53.1451 37.6482 51.2762 36.46 49.1666 35.9338M39.3333 7.43375C41.4484 7.95697 43.3232 9.14542 44.662 10.8117C46.0008 12.4781 46.7275 14.5275 46.7275 16.6369C46.7275 18.7463 46.0008 20.7957 44.662 22.462C43.3232 24.1283 41.4484 25.3168 39.3333 25.84M31.9583 16.625C31.9583 21.8717 27.5557 26.125 22.1249 26.125C16.6941 26.125 12.2916 21.8717 12.2916 16.625C12.2916 11.3783 16.6941 7.125 22.1249 7.125C27.5557 7.125 31.9583 11.3783 31.9583 16.625Z" stroke="#1E1E1E" stroke-width="4" stroke-linecap="round" stroke-linejoin="round"/>
</svg>
