<svg width="219" height="31" viewBox="0 0 219 31" fill="none" xmlns="http://www.w3.org/2000/svg">
<path d="M0.88 29.5V0.859999H10.96C12.32 0.859999 13.5867 1.08667 14.76 1.54C15.96 1.96667 17 2.58 17.88 3.38C18.76 4.18 19.4533 5.14 19.96 6.26C20.4667 7.35333 20.72 8.56667 20.72 9.9C20.72 11.26 20.4667 12.5 19.96 13.62C19.4533 14.7133 18.76 15.66 17.88 16.46C17 17.26 15.96 17.8867 14.76 18.34C13.5867 18.7667 12.32 18.98 10.96 18.98H6.28V29.5H0.88ZM11.04 13.86C12.4533 13.86 13.52 13.46 14.24 12.66C14.96 11.86 15.32 10.94 15.32 9.9C15.32 9.39333 15.2267 8.9 15.04 8.42C14.88 7.94 14.6133 7.52667 14.24 7.18C13.8933 6.80667 13.4533 6.51333 12.92 6.3C12.3867 6.08667 11.76 5.98 11.04 5.98H6.28V13.86H11.04ZM24.1072 29.5V0.859999H29.3472V29.5H24.1072ZM45.7184 27.42H45.3984C44.7851 28.1667 44.0384 28.8067 43.1584 29.34C42.3051 29.8733 41.1984 30.14 39.8384 30.14C38.8251 30.14 37.8651 29.9667 36.9584 29.62C36.0784 29.3 35.3051 28.8467 34.6384 28.26C33.9718 27.6733 33.4518 26.9667 33.0784 26.14C32.7051 25.3133 32.5184 24.4067 32.5184 23.42C32.5184 22.4067 32.7184 21.5 33.1184 20.7C33.5184 19.8733 34.0784 19.1667 34.7984 18.58C35.5184 17.9933 36.3584 17.5533 37.3184 17.26C38.3051 16.94 39.3718 16.78 40.5184 16.78C41.7984 16.78 42.8518 16.8867 43.6784 17.1C44.5051 17.2867 45.1851 17.4867 45.7184 17.7V17.1C45.7184 16.06 45.3051 15.2067 44.4784 14.54C43.6518 13.8467 42.6251 13.5 41.3984 13.5C39.5851 13.5 38.0518 14.26 36.7984 15.78L32.9984 13.18C35.0784 10.5667 37.9184 9.26 41.5184 9.26C44.5584 9.26 46.8784 9.98 48.4784 11.42C50.0784 12.8333 50.8784 14.94 50.8784 17.74V29.5H45.7184V27.42ZM45.7184 21.54C45.1051 21.2467 44.4651 21.02 43.7984 20.86C43.1584 20.6733 42.4518 20.58 41.6784 20.58C40.4251 20.58 39.4518 20.86 38.7584 21.42C38.0918 21.9533 37.7584 22.62 37.7584 23.42C37.7584 24.22 38.0784 24.86 38.7184 25.34C39.3851 25.82 40.1451 26.06 40.9984 26.06C41.6918 26.06 42.3318 25.94 42.9184 25.7C43.5051 25.4333 43.9984 25.1 44.3984 24.7C44.8251 24.2733 45.1451 23.7933 45.3584 23.26C45.5984 22.7 45.7184 22.1267 45.7184 21.54ZM59.9647 12.46H60.2847C60.898 11.4733 61.7247 10.7 62.7647 10.14C63.8047 9.55333 64.9914 9.26 66.3247 9.26C67.5514 9.26 68.6314 9.46 69.5647 9.86C70.498 10.26 71.258 10.8333 71.8447 11.58C72.458 12.3 72.9114 13.18 73.2047 14.22C73.5247 15.2333 73.6847 16.3667 73.6847 17.62V29.5H68.4447V18.26C68.4447 16.8467 68.1247 15.8067 67.4847 15.14C66.8714 14.4467 65.9647 14.1 64.7647 14.1C64.0447 14.1 63.4047 14.26 62.8447 14.58C62.3114 14.8733 61.8447 15.2867 61.4447 15.82C61.0714 16.3267 60.778 16.94 60.5647 17.66C60.378 18.3533 60.2847 19.1 60.2847 19.9V29.5H55.0447V9.9H59.9647V12.46ZM96.5734 24.78C95.6668 26.38 94.4401 27.6733 92.8934 28.66C91.3734 29.6467 89.5068 30.14 87.2934 30.14C85.8001 30.14 84.4134 29.8867 83.1334 29.38C81.8801 28.8467 80.7868 28.1133 79.8534 27.18C78.9201 26.2467 78.1868 25.1533 77.6534 23.9C77.1468 22.62 76.8934 21.22 76.8934 19.7C76.8934 18.2867 77.1468 16.9533 77.6534 15.7C78.1601 14.42 78.8668 13.3133 79.7734 12.38C80.6801 11.42 81.7468 10.66 82.9734 10.1C84.2268 9.54 85.6001 9.26 87.0934 9.26C88.6668 9.26 90.0668 9.52667 91.2934 10.06C92.5201 10.5667 93.5468 11.2867 94.3734 12.22C95.2001 13.1267 95.8268 14.2067 96.2534 15.46C96.6801 16.7133 96.8934 18.0733 96.8934 19.54C96.8934 19.7267 96.8934 19.8867 96.8934 20.02C96.8668 20.18 96.8534 20.3267 96.8534 20.46C96.8268 20.5933 96.8134 20.74 96.8134 20.9H82.0534C82.1601 21.7 82.3734 22.3933 82.6934 22.98C83.0401 23.54 83.4534 24.02 83.9334 24.42C84.4401 24.7933 84.9868 25.0733 85.5734 25.26C86.1601 25.42 86.7601 25.5 87.3734 25.5C88.5734 25.5 89.5601 25.2333 90.3334 24.7C91.1334 24.14 91.7601 23.4467 92.2134 22.62L96.5734 24.78ZM91.8134 17.18C91.7868 16.8333 91.6668 16.4467 91.4534 16.02C91.2668 15.5933 90.9734 15.1933 90.5734 14.82C90.2001 14.4467 89.7201 14.14 89.1334 13.9C88.5734 13.66 87.8934 13.54 87.0934 13.54C85.9734 13.54 84.9868 13.86 84.1334 14.5C83.2801 15.14 82.6801 16.0333 82.3334 17.18H91.8134ZM101.814 14.38H98.3741V9.9H101.814V3.9H107.054V9.9H111.854V14.38H107.054V21.98C107.054 22.4333 107.094 22.86 107.174 23.26C107.281 23.6333 107.467 23.9533 107.734 24.22C108.107 24.6467 108.641 24.86 109.334 24.86C109.787 24.86 110.147 24.82 110.414 24.74C110.681 24.6333 110.934 24.5 111.174 24.34L112.654 28.94C112.041 29.2333 111.374 29.4467 110.654 29.58C109.961 29.74 109.187 29.82 108.334 29.82C107.347 29.82 106.454 29.6733 105.654 29.38C104.881 29.06 104.227 28.6333 103.694 28.1C102.441 26.9 101.814 25.1933 101.814 22.98V14.38Z" fill="white"/>
<path d="M122.429 29.5V5.98H114.429V0.859999H135.829V5.98H127.829V29.5H122.429ZM139.029 0.859999H144.269V8.9L143.949 12.46H144.269C144.829 11.5267 145.629 10.7667 146.669 10.18C147.736 9.56667 148.922 9.26 150.229 9.26C152.762 9.26 154.629 10.0067 155.829 11.5C157.056 12.9933 157.669 15.0333 157.669 17.62V29.5H152.429V18.26C152.429 16.9 152.109 15.8733 151.469 15.18C150.829 14.46 149.936 14.1 148.789 14.1C148.069 14.1 147.429 14.26 146.869 14.58C146.309 14.8733 145.829 15.2867 145.429 15.82C145.056 16.3533 144.762 16.98 144.549 17.7C144.362 18.3933 144.269 19.14 144.269 19.94V29.5H139.029V0.859999ZM180.558 24.78C179.651 26.38 178.424 27.6733 176.878 28.66C175.358 29.6467 173.491 30.14 171.278 30.14C169.784 30.14 168.398 29.8867 167.118 29.38C165.864 28.8467 164.771 28.1133 163.838 27.18C162.904 26.2467 162.171 25.1533 161.638 23.9C161.131 22.62 160.878 21.22 160.878 19.7C160.878 18.2867 161.131 16.9533 161.638 15.7C162.144 14.42 162.851 13.3133 163.758 12.38C164.664 11.42 165.731 10.66 166.958 10.1C168.211 9.54 169.584 9.26 171.078 9.26C172.651 9.26 174.051 9.52667 175.278 10.06C176.504 10.5667 177.531 11.2867 178.358 12.22C179.184 13.1267 179.811 14.2067 180.238 15.46C180.664 16.7133 180.878 18.0733 180.878 19.54C180.878 19.7267 180.878 19.8867 180.878 20.02C180.851 20.18 180.838 20.3267 180.838 20.46C180.811 20.5933 180.798 20.74 180.798 20.9H166.038C166.144 21.7 166.358 22.3933 166.678 22.98C167.024 23.54 167.438 24.02 167.918 24.42C168.424 24.7933 168.971 25.0733 169.558 25.26C170.144 25.42 170.744 25.5 171.358 25.5C172.558 25.5 173.544 25.2333 174.318 24.7C175.118 24.14 175.744 23.4467 176.198 22.62L180.558 24.78ZM175.798 17.18C175.771 16.8333 175.651 16.4467 175.438 16.02C175.251 15.5933 174.958 15.1933 174.558 14.82C174.184 14.4467 173.704 14.14 173.118 13.9C172.558 13.66 171.878 13.54 171.078 13.54C169.958 13.54 168.971 13.86 168.118 14.5C167.264 15.14 166.664 16.0333 166.318 17.18H175.798ZM184.224 9.9H189.144V12.62H189.464C189.704 12.14 190.024 11.7 190.424 11.3C190.824 10.9 191.264 10.5533 191.744 10.26C192.251 9.96667 192.784 9.74 193.344 9.58C193.931 9.42 194.504 9.34 195.064 9.34C195.758 9.34 196.344 9.40667 196.824 9.54C197.331 9.67333 197.758 9.84667 198.104 10.06L196.704 14.82C196.384 14.66 196.024 14.54 195.624 14.46C195.251 14.3533 194.784 14.3 194.224 14.3C193.504 14.3 192.851 14.4467 192.264 14.74C191.678 15.0067 191.171 15.3933 190.744 15.9C190.344 16.4067 190.024 17.0067 189.784 17.7C189.571 18.3667 189.464 19.1 189.464 19.9V29.5H184.224V9.9ZM217.863 24.78C216.956 26.38 215.729 27.6733 214.183 28.66C212.663 29.6467 210.796 30.14 208.583 30.14C207.089 30.14 205.703 29.8867 204.423 29.38C203.169 28.8467 202.076 28.1133 201.143 27.18C200.209 26.2467 199.476 25.1533 198.943 23.9C198.436 22.62 198.183 21.22 198.183 19.7C198.183 18.2867 198.436 16.9533 198.943 15.7C199.449 14.42 200.156 13.3133 201.063 12.38C201.969 11.42 203.036 10.66 204.263 10.1C205.516 9.54 206.889 9.26 208.383 9.26C209.956 9.26 211.356 9.52667 212.583 10.06C213.809 10.5667 214.836 11.2867 215.663 12.22C216.489 13.1267 217.116 14.2067 217.543 15.46C217.969 16.7133 218.182 18.0733 218.182 19.54C218.182 19.7267 218.182 19.8867 218.182 20.02C218.156 20.18 218.143 20.3267 218.143 20.46C218.116 20.5933 218.103 20.74 218.103 20.9H203.343C203.449 21.7 203.663 22.3933 203.983 22.98C204.329 23.54 204.743 24.02 205.223 24.42C205.729 24.7933 206.276 25.0733 206.863 25.26C207.449 25.42 208.049 25.5 208.663 25.5C209.863 25.5 210.849 25.2333 211.623 24.7C212.423 24.14 213.049 23.4467 213.503 22.62L217.863 24.78ZM213.103 17.18C213.076 16.8333 212.956 16.4467 212.743 16.02C212.556 15.5933 212.263 15.1933 211.863 14.82C211.489 14.4467 211.009 14.14 210.423 13.9C209.863 13.66 209.183 13.54 208.383 13.54C207.263 13.54 206.276 13.86 205.423 14.5C204.569 15.14 203.969 16.0333 203.623 17.18H213.103Z" fill="#009688"/>
</svg>
