<svg width="52" height="52" viewBox="0 0 52 52" fill="none" xmlns="http://www.w3.org/2000/svg">
<path d="M8.6665 15.1667H43.3332M21.6665 23.8333V36.8333M30.3332 23.8333V36.8333M10.8332 15.1667L12.9998 41.1667C12.9998 42.3159 13.4564 43.4181 14.269 44.2308C15.0817 45.0435 16.1839 45.5 17.3332 45.5H34.6665C35.8158 45.5 36.918 45.0435 37.7306 44.2308C38.5433 43.4181 38.9998 42.3159 38.9998 41.1667L41.1665 15.1667M19.4998 15.1667V8.66667C19.4998 8.09203 19.7281 7.54093 20.1344 7.1346C20.5408 6.72827 21.0919 6.5 21.6665 6.5H30.3332C30.9078 6.5 31.4589 6.72827 31.8652 7.1346C32.2716 7.54093 32.4998 8.09203 32.4998 8.66667V15.1667" stroke="#FF0000" stroke-width="2" stroke-linecap="round" stroke-linejoin="round"/>
</svg>
